<svg width="560" height="88" viewBox="0 0 560 88" fill="none" xmlns="http://www.w3.org/2000/svg">
<path d="M0 0H79.7927V14.5078H0V0ZM0 33.3679H79.7927V47.8756H14.5078V87.0466H0V33.3679Z" fill="#161416"/>
<path d="M116.062 0H195.855V14.5078H116.062V0ZM116.062 33.3679H188.601V47.8756H130.57V72.5389H195.855V87.0466H116.062V33.3679Z" fill="#161416"/>
<path d="M232.124 0H249.534L277.098 59.4819L304.663 0H322.073L282.176 87.0466H272.021L232.124 0Z" fill="#161416"/>
<path d="M358.342 0H438.135V14.5078H358.342V0ZM358.342 33.3679H430.881V47.8756H372.85V72.5389H438.135V87.0466H358.342V33.3679Z" fill="#161416"/>
<path d="M474.404 0H493.264L517.202 34.0933L541.14 0H560L527.357 43.5233L560 87.0466H541.14L517.202 52.9534L493.264 87.0466H474.404L507.047 43.5233L474.404 0Z" fill="#161416"/>
</svg>
